HIERARCHY
ROOT Hips
{
	OFFSET -0.001795 -0.223333 0.028219
	CHANNELS 6 Xposition Yposition Zposition Zrotation Yrotation Xrotation 
	JOINT LeftUpLeg
	{
		OFFSET 0.069520 -0.091406 -0.006815
		CHANNELS 3 Zrotation Yrotation Xrotation
		JOINT LeftLeg
		{
			OFFSET 0.034277 -0.375199 -0.004496
			CHANNELS 3 Zrotation Yrotation Xrotation
			JOINT LeftFoot
			{
				OFFSET -0.013596 -0.397961 -0.043693
				CHANNELS 3 Zrotation Yrotation Xrotation
				JOINT LeftToe
				{
					OFFSET 0.026358 -0.055791 0.119288
					CHANNELS 3 Zrotation Yrotation Xrotation
					End Site
					{
						OFFSET 0.000000 0.000000 0.000000
					}
				}
			}
		}
	}
	JOINT RightUpLeg
	{
		OFFSET -0.067670 -0.090522 -0.004320
		CHANNELS 3 Zrotation Yrotation Xrotation
		JOINT RightLeg
		{
			OFFSET -0.038290 -0.382569 -0.008850
			CHANNELS 3 Zrotation Yrotation Xrotation
			JOINT RightFoot
			{
				OFFSET 0.015774 -0.398415 -0.042312
				CHANNELS 3 Zrotation Yrotation Xrotation
				JOINT RightToe
				{
					OFFSET -0.025372 -0.048144 0.123348
					CHANNELS 3 Zrotation Yrotation Xrotation
					End Site
					{
						OFFSET 0.000000 0.000000 0.000000
					}
				}
			}
		}
	}
	JOINT Spine
	{
		OFFSET -0.002533 0.108963 -0.026696
		CHANNELS 3 Zrotation Yrotation Xrotation
		JOINT Spine1
		{
			OFFSET 0.005487 0.135180 0.001092
			CHANNELS 3 Zrotation Yrotation Xrotation
			JOINT Spine2
			{
				OFFSET 0.001457 0.052922 0.025425
				CHANNELS 3 Zrotation Yrotation Xrotation
				JOINT Neck
				{
					OFFSET -0.002778 0.213870 -0.042857
					CHANNELS 3 Zrotation Yrotation Xrotation
					JOINT Head
					{
						OFFSET 0.005152 0.064970 0.051349
						CHANNELS 3 Zrotation Yrotation Xrotation
						End Site
						{
							OFFSET 0.000000 0.000000 0.000000
						}
					}
				}
				JOINT LeftShoulder
				{
					OFFSET 0.078845 0.121749 -0.034090
					CHANNELS 3 Zrotation Yrotation Xrotation
					JOINT LeftArm
					{
						OFFSET 0.090977 0.030469 -0.008868
						CHANNELS 3 Zrotation Yrotation Xrotation
						JOINT LeftForeArm
						{
							OFFSET 0.259612 -0.012772 -0.027456
							CHANNELS 3 Zrotation Yrotation Xrotation
							JOINT LeftHand
							{
								OFFSET 0.249234 0.008986 -0.001171
								CHANNELS 3 Zrotation Yrotation Xrotation
								End Site
								{
									OFFSET 0.000000 0.000000 0.000000
								}
							}
						}
					}
				}
				JOINT RightShoulder
				{
					OFFSET -0.081759 0.118833 -0.038615
					CHANNELS 3 Zrotation Yrotation Xrotation
					JOINT RightArm
					{
						OFFSET -0.096012 0.032551 -0.009143
						CHANNELS 3 Zrotation Yrotation Xrotation
						JOINT RightForeArm
						{
							OFFSET -0.253742 -0.013329 -0.021401
							CHANNELS 3 Zrotation Yrotation Xrotation
							JOINT RightHand
							{
								OFFSET -0.255298 0.007772 -0.005559
								CHANNELS 3 Zrotation Yrotation Xrotation
								End Site
								{
									OFFSET 0.000000 0.000000 0.000000
								}
							}
						}
					}
				}
			}
		}
	}
}
MOTION
Frames: 17
Frame Time: 0.050000
0.004542 0.928541 -0.151340 -3.960035 -0.691602 13.476072 2.882619 -1.459137 -21.678219 0.915061 -0.087551 -0.229008 10.288075 20.946626 12.625614 0.000000 0.000000 0.000000 3.933303 3.249178 -25.025185 -0.516246 0.223555 3.789904 -8.681815 -21.309823 16.650071 0.000000 0.000000 0.000000 -6.501666 0.963162 36.716758 6.795357 -1.487257 -17.055701 3.520911 1.874563 32.969316 -5.715014 5.344148 -8.607447 0.000000 0.000000 0.000000 -21.860555 -6.774093 2.485353 -60.227776 -19.731693 -0.261991 -79.460097 -67.068567 65.621638 0.000000 0.000000 0.000000 9.176394 16.757908 7.472186 59.900941 20.780616 1.970348 141.652881 64.124456 134.714468 0.000000 0.000000 0.000000 
0.005073 0.928444 -0.148286 -3.801179 -0.808894 13.076458 2.577990 -1.466136 -21.118640 1.018724 -0.106434 -0.045178 10.363607 21.050609 12.302536 0.000000 0.000000 0.000000 3.667972 3.127565 -24.430068 -0.317611 0.200145 3.854606 -8.671474 -21.293815 16.210473 0.000000 0.000000 0.000000 -6.975885 1.149214 36.505709 6.841146 -1.543623 -16.637799 3.951540 2.170463 32.567920 -6.018751 5.606761 -9.053923 0.000000 0.000000 0.000000 -22.553713 -7.544831 2.831703 -60.356377 -20.400660 0.173878 -71.539369 -67.966762 59.261797 0.000000 0.000000 0.000000 10.028198 17.004106 7.740241 60.027106 19.713462 1.471258 140.688855 67.076753 135.767905 0.000000 0.000000 0.000000 
0.005158 0.928009 -0.144366 -3.975231 -0.593273 12.559472 2.631215 -1.426634 -20.520985 1.162454 -0.138133 0.336119 10.320548 21.004913 11.587832 0.000000 0.000000 0.000000 4.041340 3.088398 -23.743932 -0.571760 0.247512 4.153558 -8.817081 -21.491835 15.762409 0.000000 0.000000 0.000000 -7.145974 1.162303 36.294333 7.181660 -1.605132 -17.108783 3.865317 1.937043 32.602383 -6.224636 5.769085 -9.052452 0.000000 0.000000 0.000000 -23.591953 -7.771882 3.009139 -59.674968 -20.923968 0.395300 -62.937885 -68.331638 52.259126 0.000000 0.000000 0.000000 11.148118 17.538560 8.139621 59.747183 18.801366 0.908585 138.000053 71.034284 135.114479 0.000000 0.000000 0.000000 
0.004761 0.927588 -0.139597 -3.822764 -0.526569 11.990878 2.346865 -1.417473 -19.715673 1.322788 -0.166784 0.580996 10.322500 21.012385 10.980018 0.000000 0.000000 0.000000 3.948898 2.997220 -23.196688 -0.558509 0.278808 4.876079 -8.949296 -21.694179 15.054191 0.000000 0.000000 0.000000 -7.501870 1.255432 35.587800 7.407265 -1.727666 -16.563999 3.758721 1.604681 31.995558 -6.247770 5.749161 -8.990399 0.000000 0.000000 0.000000 -24.207981 -8.142649 3.334374 -59.327099 -21.315845 0.616553 -50.967644 -67.488808 41.996462 0.000000 0.000000 0.000000 12.307449 17.699348 8.324039 59.779766 17.789170 0.395929 134.450477 74.507835 132.996963 0.000000 0.000000 0.000000 
0.003980 0.927689 -0.133971 -4.035213 -0.438800 11.396611 2.602332 -1.333635 -18.947678 1.284159 -0.183924 1.057584 10.344858 21.049910 10.355945 0.000000 0.000000 0.000000 4.171378 2.948798 -22.580781 -0.348346 0.282425 5.641069 -9.053879 -21.851543 14.571481 0.000000 0.000000 0.000000 -7.787753 1.301719 34.593792 7.866539 -1.840983 -16.842701 3.593059 1.283106 31.859171 -6.567791 5.969321 -9.603381 0.000000 0.000000 0.000000 -25.350003 -8.349262 3.566996 -58.267135 -21.289350 0.515813 -42.827297 -65.681491 34.631593 0.000000 0.000000 0.000000 13.995940 18.089032 8.717490 59.042618 16.930811 -0.152499 128.196248 78.469305 128.484563 0.000000 0.000000 0.000000 
0.003183 0.928547 -0.127337 -3.946748 -0.619485 10.251016 2.353346 -1.253270 -17.349772 1.511185 -0.223633 1.326008 10.424032 21.143845 10.007824 0.000000 0.000000 0.000000 4.321179 2.814765 -21.382133 -0.505421 0.349312 6.566537 -9.019008 -21.786688 13.998823 0.000000 0.000000 0.000000 -8.275181 1.402395 32.825204 7.971080 -1.938860 -16.418642 3.395219 0.736643 31.239460 -6.720184 5.948436 -11.690578 0.000000 0.000000 0.000000 -25.182753 -7.846176 3.444870 -58.229419 -20.619171 0.221780 -36.183827 -63.058533 28.477009 0.000000 0.000000 0.000000 15.244589 18.213431 8.786238 58.533778 15.683223 -0.769811 110.300313 81.657967 111.014093 0.000000 0.000000 0.000000 
0.002438 0.929831 -0.119646 -3.827110 -0.400895 9.384487 2.065988 -1.179466 -15.740105 1.762053 -0.239214 1.033237 10.257515 20.874879 9.804757 0.000000 0.000000 0.000000 4.326155 2.639510 -20.143475 -0.522252 0.370419 6.999172 -9.146421 -21.950877 13.722663 0.000000 0.000000 0.000000 -8.808544 1.459992 30.985780 8.202197 -1.956406 -17.015784 3.448596 0.159639 31.165814 -6.983462 6.053884 -13.133458 0.000000 0.000000 0.000000 -25.977080 -7.413434 3.328995 -57.548417 -19.179422 -0.581322 -34.099709 -59.636644 25.330235 0.000000 0.000000 0.000000 17.154753 18.109530 8.891040 57.311816 14.493853 -1.448009 75.720528 82.243383 76.000237 0.000000 0.000000 0.000000 
0.001869 0.932289 -0.110913 -3.581051 -0.075189 8.323835 1.526761 -1.060294 -13.329241 2.190876 -0.221933 -0.225422 9.912880 20.317346 10.071180 0.000000 0.000000 0.000000 4.224171 2.356850 -18.229271 -0.593062 0.367090 6.723426 -9.247209 -22.043184 13.769897 0.000000 0.000000 0.000000 -9.230849 1.436780 28.693287 8.202855 -1.955131 -17.153537 3.425234 -0.779430 30.507671 -6.458353 5.441701 -16.418584 0.000000 0.000000 0.000000 -25.683994 -6.483423 2.967839 -57.533274 -17.380141 -1.427805 -32.953597 -56.677876 23.211834 0.000000 0.000000 0.000000 18.106770 17.820939 8.607226 56.477637 12.745173 -2.202068 47.216899 80.846842 47.339549 0.000000 0.000000 0.000000 
0.001360 0.933947 -0.101361 -3.510726 0.330665 7.402727 1.170141 -0.935407 -11.327047 2.669870 -0.230042 -0.941450 9.605126 19.832819 9.999680 0.000000 0.000000 0.000000 3.982199 2.131205 -16.790290 -0.102741 0.299699 7.113899 -9.454308 -22.324047 13.665749 0.000000 0.000000 0.000000 -9.339512 1.305151 26.174688 8.750286 -2.019834 -18.172244 2.899242 -1.264975 30.681439 -5.774849 4.881462 -18.669388 0.000000 0.000000 0.000000 -25.225904 -5.009956 2.118571 -58.191275 -15.467808 -2.366841 -33.722977 -52.923644 21.912796 0.000000 0.000000 0.000000 18.478996 16.446705 7.828487 56.481177 11.296896 -2.912126 33.989942 77.023006 33.138948 0.000000 0.000000 0.000000 
0.001072 0.935845 -0.090916 -3.457105 0.824597 6.014877 0.630148 -0.763760 -8.838055 3.497187 -0.272355 -1.523611 9.237474 19.250214 9.929442 0.000000 0.000000 0.000000 3.970358 1.832379 -14.549415 0.025670 0.273325 7.109198 -9.658014 -22.586220 13.644733 0.000000 0.000000 0.000000 -8.626623 0.968400 23.741412 8.051326 -1.704522 -19.508141 2.794539 -2.169442 31.095203 -4.387311 3.829410 -23.603675 0.000000 0.000000 0.000000 -23.853291 -4.115391 1.790405 -59.301399 -13.158443 -3.555388 -33.457942 -49.546209 20.320338 0.000000 0.000000 0.000000 17.567067 15.258468 6.922503 57.546610 9.616068 -3.769632 26.134745 72.815365 24.513677 0.000000 0.000000 0.000000 
0.000773 0.936318 -0.080061 -3.326126 1.458581 4.559767 0.447911 -0.554534 -6.319053 3.579644 -0.245994 -2.013576 8.879270 18.662282 9.323487 0.000000 0.000000 0.000000 3.912841 1.557014 -12.466994 0.093384 0.273589 7.597182 -10.003858 -23.116918 13.246726 0.000000 0.000000 0.000000 -8.146661 0.734375 21.709689 7.992246 -1.536968 -21.182429 2.272086 -2.822136 31.635110 -3.675372 3.369434 -27.077592 0.000000 0.000000 0.000000 -24.274666 -3.464110 1.501351 -58.620745 -10.520370 -4.966240 -33.101598 -47.901664 19.410703 0.000000 0.000000 0.000000 18.325406 14.003573 6.245799 57.056395 7.729288 -4.734312 21.866863 67.512112 19.110541 0.000000 0.000000 0.000000 
0.000427 0.936683 -0.069093 -3.088661 2.096558 3.209628 0.328256 -0.308245 -3.477426 3.403989 -0.148448 -3.274722 8.458379 17.965975 8.941873 0.000000 0.000000 0.000000 3.929393 1.269418 -10.216579 -0.179591 0.315807 7.611017 -10.320803 -23.623908 12.880137 0.000000 0.000000 0.000000 -7.754744 0.546924 19.240320 7.403106 -1.275930 -22.405280 2.063600 -3.769699 31.796702 -2.681709 2.774190 -31.066779 0.000000 0.000000 0.000000 -24.678307 -2.425604 1.041119 -58.093372 -8.066561 -6.201119 -32.483016 -45.058224 17.882474 0.000000 0.000000 0.000000 17.962567 13.184761 5.634392 57.684958 5.680539 -5.773794 18.938405 62.443593 15.286342 0.000000 0.000000 0.000000 
-0.000200 0.936767 -0.058784 -2.925605 2.698403 1.804942 0.325190 -0.117185 -1.286451 3.248885 -0.132232 -3.320216 8.152375 17.425020 8.330859 0.000000 0.000000 0.000000 3.896527 1.004760 -8.133428 -0.190310 0.323673 7.941792 -10.633182 -24.149869 12.543898 0.000000 0.000000 0.000000 -7.205212 0.368297 17.119638 7.253121 -1.153529 -23.490888 1.663739 -4.022101 32.440001 -1.705348 2.295249 -31.698626 0.000000 0.000000 0.000000 -25.413317 -2.216395 0.880244 -57.526488 -6.257054 -7.115407 -31.637699 -43.085560 16.596575 0.000000 0.000000 0.000000 17.752043 12.360031 5.231824 58.204406 4.105563 -6.662968 17.089172 57.440791 12.751525 0.000000 0.000000 0.000000 
-0.001224 0.937042 -0.049524 -3.020349 3.104453 0.341053 0.575692 0.079262 1.097997 3.223813 -0.106776 -3.702325 7.912538 16.993977 7.969976 0.000000 0.000000 0.000000 4.120062 0.728403 -5.891694 -0.141779 0.310093 7.927309 -10.797375 -24.433363 12.366982 0.000000 0.000000 0.000000 -6.467769 0.201179 15.374061 6.708827 -0.973677 -24.161613 1.594687 -4.220863 32.342445 -0.725291 1.876979 -33.602242 0.000000 0.000000 0.000000 -25.564768 -1.750889 0.559474 -57.772096 -4.389104 -8.016252 -30.675477 -41.006547 15.283259 0.000000 0.000000 0.000000 17.080130 11.524012 4.773077 59.972764 3.174799 -7.307530 14.753894 51.723447 10.084324 0.000000 0.000000 0.000000 
-0.002822 0.937556 -0.041470 -2.919684 3.133460 -0.762087 0.806175 0.214678 2.865992 2.887390 -0.081728 -3.729030 7.840302 16.859012 7.886857 0.000000 0.000000 0.000000 4.288860 0.467552 -3.880611 -0.384317 0.337105 7.459660 -10.751354 -24.385841 12.155566 0.000000 0.000000 0.000000 -6.025564 0.116698 13.387199 6.221413 -0.835985 -24.497956 1.478539 -4.281555 32.462570 0.025844 1.495298 -33.568471 0.000000 0.000000 0.000000 -25.193211 -1.182577 0.234547 -59.048551 -3.059047 -8.786889 -29.072678 -39.566960 14.089413 0.000000 0.000000 0.000000 16.934471 10.832835 4.395250 61.338864 2.129517 -7.993636 13.263494 47.582577 8.456693 0.000000 0.000000 0.000000 
-0.004671 0.938276 -0.034443 -2.921211 3.200566 -1.861557 1.095980 0.328439 4.506136 2.691981 -0.070791 -3.684885 7.737045 16.690232 7.913153 0.000000 0.000000 0.000000 4.404005 0.175301 -1.699916 -0.339869 0.294640 6.531114 -10.669192 -24.262140 12.095262 0.000000 0.000000 0.000000 -5.554435 0.043192 11.831688 5.812508 -0.712375 -24.955933 1.411610 -4.247649 32.365070 0.597695 1.279077 -34.452806 0.000000 0.000000 0.000000 -24.228138 -0.627021 -0.110365 -60.334846 -1.583286 -9.620864 -28.988847 -38.094335 13.500063 0.000000 0.000000 0.000000 16.416854 9.879472 3.903843 63.029341 1.533894 -8.499317 12.032210 42.933165 7.007585 0.000000 0.000000 0.000000 
-0.006634 0.938944 -0.028129 -2.869965 3.289933 -2.356647 1.206454 0.403599 5.604155 2.718997 -0.057760 -3.956384 7.616783 16.517113 8.127696 0.000000 0.000000 0.000000 4.585961 -0.041453 -0.148210 -0.518632 0.283265 5.458008 -10.612832 -24.171655 12.127954 0.000000 0.000000 0.000000 -5.336879 0.015188 10.524484 5.649266 -0.671540 -25.010066 1.388873 -4.521306 32.499607 0.835947 1.087202 -33.907768 0.000000 0.000000 0.000000 -24.507389 -0.282663 -0.256345 -61.250092 -1.051215 -10.039635 -28.080406 -37.125039 12.838237 0.000000 0.000000 0.000000 16.770567 9.649365 3.745109 63.755181 1.174373 -8.805990 10.774187 39.868643 5.940250 0.000000 0.000000 0.000000 
